<svg id="Layer_1" data-name="Layer 1" xmlns="http://www.w3.org/2000/svg" viewBox="0 0 300 300"><defs><style>.cls-1{fill:#fff;}</style></defs><path class="cls-1" d="M178.26,149.75a80.25,80.25,0,0,0-.07-8.5,4.75,4.75,0,0,0-.68-2,2.91,2.91,0,0,0-2.09-1.64c-1.55-.15-2.81,1-3.93,2.27l-.21.24c-.75.09-2.47-1.55-3.27-1.92a14.42,14.42,0,0,0-12.92.8c-2.81,1.74-4.49,4.46-5.53,8.26-.84,5.47-1.08,11,1.38,15.87a12.32,12.32,0,0,0,18.7,3.85,18.48,18.48,0,0,0,1.63-1.77c0,3.38,0,6.73-1.91,9.3-1.57,2.06-3.85,2.46-6,2.36-.33,0-.65-.05-1-.09s-.64-.12-1-.19-.63-.18-.95-.29a9.2,9.2,0,0,1-.93-.39c-2.13-1-6.32-4.79-8.47-2.31a3.77,3.77,0,0,0-.82,2.41,4.33,4.33,0,0,0,.89,2.78c.78,1.05,1.74,1.73,2.54,2.69a31.36,31.36,0,0,0,2.9,1.45c6,2.5,11.89,1.67,17.43-2.18.51-.55,1-1.1,1.5-1.71,2.71-3.46,2.72-7.22,2.75-11.83C178.19,161.37,178.23,155.55,178.26,149.75Zm-7.61,7.59a7.81,7.81,0,0,1-3.87,4.72,4.52,4.52,0,0,1-1.67.42,7.33,7.33,0,0,1-4,0l-.33-.11-.32-.13-.32-.15-.31-.18-.31-.19-.3-.22-.29-.24-.28-.25-.26-.27-.26-.3a3.76,3.76,0,0,1-.25-.31l-.24-.32-.22-.35-.21-.35-.19-.37-.18-.38-.18-.42-.15-.42c0-.14-.1-.29-.14-.44s-.09-.29-.13-.44-.07-.3-.11-.45l-.09-.46c0-.15,0-.31-.07-.46s0-.31-.05-.47,0-.31,0-.47,0-.32,0-.47a3.84,3.84,0,0,1,0-.48c0-.16,0-.31,0-.47l0-.47L156,152c0-.15.05-.31.07-.46l.09-.46a8.91,8.91,0,0,1,3.34-5.56,7.57,7.57,0,0,1,7.07-.32,8.21,8.21,0,0,1,4.22,5.09A11.72,11.72,0,0,1,170.65,157.34Z"/><path class="cls-1" d="M275,142.64c-.68,2.08-1.67,4.11-2.45,6.14-2.6,6.71-5.32,13.29-8,19.92-1.58,3.85-3,8.42-5.2,11.71a8.54,8.54,0,0,1-7.12,3.85c-1.54.08-3.14.1-4.32-1.42a3.65,3.65,0,0,1-.74-1.56,7.1,7.1,0,0,1,1.09-3.25l0-.11A14.81,14.81,0,0,1,253,177a29.57,29.57,0,0,0,4.49-9.42,2.56,2.56,0,0,0-.24-1.81,36.49,36.49,0,0,0-2.39-5.7c-1.82-5.31-4.13-10.45-6.21-15.59a39.56,39.56,0,0,1-8.63.27q0,6.67,0,13.35a78.66,78.66,0,0,1-.06,8.13,4.36,4.36,0,0,1-.67,2.21,3.36,3.36,0,0,1-3.06,1.23,3.6,3.6,0,0,1-2.9-1.73,7.3,7.3,0,0,1-.59-3.41q-.07-9.86,0-19.7c-1.66.05-3.48.21-4.93-1.09a2.91,2.91,0,0,1-.49-4c1.35-2,3.62-1.84,5.44-1.93-.06-1.62-.1-3.26-.08-4.88,0-2.94.38-6,2.11-8,2.17-2.63,5.67-3,8.49-2.83,1.6.12,3.82.45,4.9,2.19a4.3,4.3,0,0,1,.54,2.65c-.54,4.11-6.18,1.14-8,3.36-1.13,1.4-.76,5.75-.75,7.69,3.56-.14,10.85-1,13.88.94.16.32.32.64.49.95,1.78,3.25,4.77,13.7,5.88,15.25a8.61,8.61,0,0,0,1,3l.36-.14.41-1.09c1.37-4.9,3.7-9.83,5.31-14.71l.17-.3c1.11-2,1.22-3.45,3.34-4a3.7,3.7,0,0,1,3.45.7,3.12,3.12,0,0,1,.89,2A5.18,5.18,0,0,1,275,142.64Z"/><path class="cls-1" d="M132.48,161.94a9.36,9.36,0,0,1-3.91,5.8c-4.95,3.31-11.72,3.14-16.87.77-1.28-.58-4-1.59-4.67-3.15a3.24,3.24,0,0,1-.17-2,2.56,2.56,0,0,1,1.2-1.69c2.78-1.71,10.46,2.43,15.77.51.16-.09.31-.16.46-.26a2.24,2.24,0,0,0,1-1.49c-.79-3-7.32-3.81-9.54-4.6a18.29,18.29,0,0,1-5.19-2.71,7.22,7.22,0,0,1-3-4.74,8.33,8.33,0,0,1,.72-5.35c1.61-3.22,4.85-4.83,7.6-5.49,4.37-1.06,10.83-.63,14.54,3a3.88,3.88,0,0,1,1.23,2.58,2.59,2.59,0,0,1-.55,1.74c-1.24,1.53-3.21,1.41-4.76,1.24a11.94,11.94,0,0,0-9.75-1.18,3.81,3.81,0,0,0-1.38,1,1.93,1.93,0,0,0-.08,1.51,3.13,3.13,0,0,0,1.87,1.78c4.34,1.47,12.49,1.8,15,7.37A8.46,8.46,0,0,1,132.48,161.94Z"/><path class="cls-1" d="M190.21,139.63l.3.52.29-.24a13.09,13.09,0,0,1,12.93-2,10.23,10.23,0,0,1,6.09,5.27,17.49,17.49,0,0,1,1.23,4.83c.32,2.6.5,17.1-.06,19.14a3.08,3.08,0,0,1-1.42,2,5,5,0,0,1-1.95.61,3.77,3.77,0,0,1-2-.62c-3.14-2.32-.82-15.54-1.95-20.7-.75-1.86-1.61-3.11-3.17-3.72a7.28,7.28,0,0,0-6.63.6,7.4,7.4,0,0,0-2.48,4.64c-.79,4.34,1.11,16.81-1.58,19.14a3.52,3.52,0,0,1-3.33.52,4.15,4.15,0,0,1-2.3-2.35l-.18-.42c0-8.88-.43-18.09.12-26.92l.48-.64a3.46,3.46,0,0,1,3-1.56A3.61,3.61,0,0,1,190.21,139.63Z"/><path class="cls-1" d="M144.65,164.76c-.05,1.27-.07,2.74-.83,3.64a4.91,4.91,0,0,1-2.37,1.39,7.54,7.54,0,0,1-1.93-.4,3.23,3.23,0,0,1-1.85-2,6.21,6.21,0,0,1-.32-1.94c-.1-2.24.12-4.57.12-6.83,0-5.42-.14-10.9,0-16.31a10.4,10.4,0,0,1,.28-2.63,2.83,2.83,0,0,1,1.56-1.82,4.73,4.73,0,0,1,4.45.79,3.89,3.89,0,0,1,.7,1.51C145,143.14,144.82,160.69,144.65,164.76Z"/><path class="cls-1" d="M217,167.85c-.59-3.11-.37-21.52-.25-25.74a4.88,4.88,0,0,1,.88-3.32,3.76,3.76,0,0,1,3.28-1.16,3.81,3.81,0,0,1,3,2.12c.29,5,.12,10.18.13,15.21,0,3.73.22,7.66,0,11.37a3.53,3.53,0,0,1-.4,1.7,3.28,3.28,0,0,1-2.62,1.71,8.15,8.15,0,0,1-2.35-.3Z"/><path class="cls-1" d="M215.38,131a7,7,0,0,1,0-4.46,4.75,4.75,0,0,1,3-2.82,5.81,5.81,0,0,1,5.68,1,4.84,4.84,0,0,1,1.76,3,6.18,6.18,0,0,1-.75,3.75,5.06,5.06,0,0,1-3.84,2.45,9.67,9.67,0,0,1-1.2.08A7.23,7.23,0,0,1,215.38,131Z"/><path class="cls-1" d="M139.64,123.28a6.65,6.65,0,0,1,5.92,2.65,10.46,10.46,0,0,1,.51,1.49,5.73,5.73,0,0,1-.28,3.36,5.17,5.17,0,0,1-2.89,2.79l-.33.12a2.56,2.56,0,0,1-.34.1,2.09,2.09,0,0,1-.34.08,2,2,0,0,1-.34.06l-.34,0h-.69l-.34,0a3.43,3.43,0,0,1-.34-.06l-.34-.07-.34-.1-.33-.12-.33-.14-.32-.17a2.48,2.48,0,0,1-.31-.18,3.28,3.28,0,0,1-.31-.2,5,5,0,0,1-2-3,5.8,5.8,0,0,1,.29-3.33C136.59,124.68,138.21,123.91,139.64,123.28Z"/><path class="cls-1" d="M44.25,122.81c.16-.5.33-1,.51-1.46a12.23,12.23,0,0,1,7-7.54c4.18-1.8,16.36-1.76,20.7-.57a20.92,20.92,0,0,1,6.29,3.13c2.65,2.38,4.92,5,5.57,9.38.57,3.87.42,8.72-1.3,12a11.29,11.29,0,0,1-7.37,6,7.73,7.73,0,0,1-3.91,0c-1.49-.49-2.73-1.81-4.14-2.57-2.63-1.42-7.23-.79-9,2.44a9.19,9.19,0,0,0-.74,5.17,5.68,5.68,0,0,0,.89,2.45c3.35,5,9.83,2.66,14.48,11,.55-3.67,1-7.8,3.53-10a6.56,6.56,0,0,1,6.35-1,6.19,6.19,0,0,1,3.58,3.42c1.65,3.72.5,11.29-.36,15.22-1.31,6-4.29,10.59-8.4,13.54-8.56,6.15-19,4.89-28,1.18-2.13-.87-6.35-2.67-7.61-5.22a1.92,1.92,0,0,1,.37-1.45,1.87,1.87,0,0,1,1.88-.65c2.37.37,4.78,2.61,7,3.7,8.06,3.92,18.85,4.4,26.05-2.61,3.18-3.1,4.79-7.68,5.37-12.77a31,31,0,0,0,.34-7.38,4.42,4.42,0,0,0-.82-2.65,2.92,2.92,0,0,0-2.49-.77,2.56,2.56,0,0,0-1.51,1.44c-1.66,3.36-.91,10.57-4.65,11.64a4.83,4.83,0,0,1-2.26-.13c-1.34-1.32-1.66-3.36-2.68-5-2.18-3.53-6.61-4.11-9.65-5.74a10,10,0,0,1-5.11-5.71,14.45,14.45,0,0,1,.36-8.39,9.13,9.13,0,0,1,5.14-5.37c4.93-2.09,9-.41,13.43,2.65a10.58,10.58,0,0,0,2.55-.68,7.37,7.37,0,0,0,4.19-4.49,19.43,19.43,0,0,0,0-10.21A11.59,11.59,0,0,0,74.1,118c-4.23-2.23-18-2.57-22-.1A8,8,0,0,0,48.31,123c-.76,2.87-.68,25-.32,29a10.79,10.79,0,0,0,.95,4c1.51,2.91,6,5.24,6.53,6.69a3.65,3.65,0,0,1-.18,1.94,1.19,1.19,0,0,1-.75.49c-1.78.36-4.62-2.1-6-3.39a11.8,11.8,0,0,1-3.62-5.28c-1.68-4.9-.92-16.27-.9-21.87a37.81,37.81,0,0,0-.13-5.74c0-.14-.05-.28-.08-.43a2.6,2.6,0,0,0-.91-1.81,2.27,2.27,0,0,0-2.44-.27l-.13.06-.12.07-.12.08-.12.09-.12.1-.11.1-.11.12a.63.63,0,0,0-.1.12l-.1.12-.09.13-.09.14-.08.15-.08.15a1.11,1.11,0,0,1-.07.16l-.06.16-.06.16c-1,3.27-.44,15.56,0,19.34.31,2.84,1.83,8.2,1.21,10.71a4.36,4.36,0,0,1-1.54.31c-4.6-.24-3-17.88-5.32-21.19-.69-1-1.69-.87-2.61-.88a3.85,3.85,0,0,0-1.71,2.66c-1.41,6.6,1.41,16.81,3.92,22.47a12.63,12.63,0,0,0,1.87,3.4,13.23,13.23,0,0,0,1.92,3,4.79,4.79,0,0,1,1.22,3.09,2.13,2.13,0,0,1-.61,1.45,1.68,1.68,0,0,1-1.76.18,5.21,5.21,0,0,1-1.54-1.37c-.85-1.81-2.34-3.57-3.37-5.29-2.48-4.1-4.27-10-5.13-15.13s-1.31-11.23.85-15.81a6.13,6.13,0,0,1,1.68-1.72c2-1.34,3.91-1,6-.1l.36.32.24-.16a24.68,24.68,0,0,0,.4-5.16c.48-2.23,1.1-3.83,2.68-5A6.78,6.78,0,0,1,44.25,122.81Z"/><path class="cls-1" d="M73.45,125.21a3.75,3.75,0,0,1,1.9.64,2.81,2.81,0,0,1,.79,3.44A3.13,3.13,0,0,1,73.73,131a3.37,3.37,0,0,1-2-.75,3,3,0,0,1-.59-3.54A2.84,2.84,0,0,1,73.45,125.21Z"/></svg>