<svg id="Layer_1" data-name="Layer 1" xmlns="http://www.w3.org/2000/svg" viewBox="0 0 300 300"><path d="M120.05,81.34c.4-1.24.83-2.47,1.29-3.68,3.73-10.06,9.73-15.65,17.6-19,10.55-4.54,41.3-4.44,52.26-1.43,5.71,1.57,10.71,4.36,15.88,7.91,6.68,6,12.41,12.5,14.06,23.67,1.45,9.78,1.07,22-3.27,30.41-4.22,8.15-11.36,13.48-18.62,15.06a19.53,19.53,0,0,1-9.87-.11c-3.76-1.25-6.9-4.58-10.45-6.5-6.65-3.6-18.26-2-22.64,6.15-1.93,3.59-2.44,8.78-1.89,13.06a14.4,14.4,0,0,0,2.27,6.19c8.44,12.54,24.82,6.73,36.55,27.72,1.38-9.26,2.39-19.68,8.9-25.25,4.5-3.85,11-4.44,16-2.63a15.76,15.76,0,0,1,9.05,8.63c4.15,9.41,1.26,28.52-.91,38.44-3.31,15.15-10.83,26.74-21.22,34.2-21.62,15.51-48,12.32-70.59,3-5.37-2.22-16-6.75-19.22-13.19a5,5,0,0,1,.94-3.66,4.73,4.73,0,0,1,4.75-1.65c6,.94,12.07,6.58,17.75,9.34,20.34,9.89,47.6,11.1,65.78-6.6,8-7.81,12.09-19.38,13.55-32.22.65-5.77,1.69-12.85.86-18.64-.19-2.4-.57-5.06-2.06-6.69a7.34,7.34,0,0,0-6.3-1.93,6.37,6.37,0,0,0-3.8,3.62c-4.2,8.49-2.3,26.68-11.74,29.39-1.81.52-3.91.07-5.72-.33-3.37-3.34-4.19-8.47-6.78-12.67-5.49-8.92-16.68-10.39-24.36-14.5-5.1-2.74-10.79-7.31-12.88-14.4a36.14,36.14,0,0,1,.91-21.18,22.94,22.94,0,0,1,13-13.56c12.44-5.29,22.79-1,33.91,6.67a25,25,0,0,0,6.43-1.71,18.57,18.57,0,0,0,10.59-11.33c2.39-6.92,2.27-18.82.07-25.78-2.59-8.25-8.68-13.65-14.73-16.84-10.67-5.63-45.34-6.49-55.64-.25a20.19,20.19,0,0,0-9.47,12.78c-1.91,7.27-1.7,63.23-.79,73.15.35,3.71.77,7.1,2.4,10.25,3.79,7.34,15.22,13.21,16.49,16.87a9.51,9.51,0,0,1-.45,4.91,3,3,0,0,1-1.92,1.22c-4.47.92-11.66-5.29-15.23-8.54-4.07-3.71-7-7.22-9.14-13.35-4.25-12.36-2.34-41.07-2.28-55.22,0-4.46.39-10.14-.33-14.47-.06-.37-.13-.73-.19-1.09-.42-2.12-.84-3.4-2.3-4.57a5.72,5.72,0,0,0-6.16-.68l-.32.15-.32.18-.31.21-.3.22-.29.24-.29.27-.27.28-.26.3-.24.32-.24.34-.22.35c-.07.12-.14.24-.2.37s-.13.25-.2.38-.12.26-.17.39-.11.27-.16.41l-.15.42c-2.62,8.24-1.11,39.26,0,48.82.8,7.16,4.62,20.7,3.06,27a11,11,0,0,1-3.89.77c-11.62-.59-7.44-45.15-13.42-53.48-1.76-2.44-4.28-2.2-6.61-2.24a9.72,9.72,0,0,0-4.3,6.71c-3.55,16.68,3.56,42.45,9.89,56.73,1.19,2.69,2.82,6.74,4.72,8.6,1.36,2.53,3,5.85,4.85,7.68,1.52,2.34,3.31,4.42,3.08,7.79a5.32,5.32,0,0,1-1.53,3.66,4.25,4.25,0,0,1-4.46.46,13.22,13.22,0,0,1-3.88-3.45c-2.15-4.59-5.9-9-8.51-13.36-6.26-10.37-10.78-25.28-13-38.21-2.13-12.73-3.3-28.36,2.14-39.9a15.42,15.42,0,0,1,4.26-4.36c5-3.37,9.87-2.44,15-.24l.92.81.61-.41a62.86,62.86,0,0,0,1-13c1.22-5.64,2.78-9.68,6.76-12.7C108.2,79,114.65,79.19,120.05,81.34Z"/><path d="M193.77,87.42a9.26,9.26,0,0,1,4.8,1.62,7,7,0,0,1,2.66,4.64,6.85,6.85,0,0,1-.67,4c-1.45,2.94-3.64,3.64-6.08,4.25a8.55,8.55,0,0,1-4.95-1.88,7.49,7.49,0,0,1-1.48-8.94C189.49,88.42,191.45,87.94,193.77,87.42Z"/></svg>